<?xml version="1.0" encoding="UTF-8"?>
<svg xmlns="http://www.w3.org/2000/svg" xmlns:xlink="http://www.w3.org/1999/xlink" width="100px" height="84px" viewBox="0 0 99 84" version="1.1">
<g id="surface1">
<path style=" stroke:none;fill-rule:nonzero;fill:rgb(0%,0%,0%);fill-opacity:1;" d="M 41.472656 3.71875 C 47.390625 1.199219 53.902344 0.167969 60.308594 0.609375 C 66.578125 1.082031 72.738281 2.996094 78.15625 6.21875 C 83.007812 9.101562 87.269531 12.988281 90.597656 17.570312 C 94.480469 22.90625 97.070312 29.195312 98.046875 35.738281 C 98.800781 40.925781 98.648438 46.269531 97.414062 51.371094 C 98.214844 52.953125 98.617188 54.769531 98.347656 56.539062 C 98.039062 59.195312 96.34375 61.628906 93.988281 62.859375 C 93.453125 63.230469 92.65625 63.238281 92.289062 63.828125 C 88 70.753906 81.65625 76.386719 74.257812 79.734375 C 72.710938 80.460938 71.105469 81.035156 69.488281 81.578125 L 69.15625 81.652344 C 61.378906 84.058594 52.890625 83.972656 45.125 81.558594 C 39.3125 79.703125 33.898438 76.574219 29.425781 72.394531 C 25.144531 68.417969 21.707031 63.523438 19.429688 58.125 C 18.414062 55.757812 17.679688 53.277344 17.078125 50.773438 C 16.007812 50.113281 14.714844 49.925781 13.484375 50.070312 C 10.933594 50.335938 8.523438 51.261719 6.058594 51.898438 C 7.816406 50.59375 9.730469 49.507812 11.71875 48.605469 C 8.5625 48.644531 5.46875 49.394531 2.410156 50.109375 C 1.589844 50.3125 0.769531 50.523438 -0.0429688 50.761719 C 3.109375 47.367188 7.253906 45.066406 11.527344 43.425781 C 10.066406 43.234375 8.585938 43.0625 7.1875 42.558594 C 5.878906 42.117188 4.660156 41.433594 3.566406 40.59375 C 4.621094 40.5625 5.679688 40.628906 6.734375 40.503906 C 9.984375 40.527344 13.398438 40.351562 16.292969 38.707031 C 16.828125 31.609375 19.25 24.664062 23.230469 18.785156 C 27.695312 12.132812 34.113281 6.8125 41.472656 3.71875 Z M 41.472656 3.71875 "/>
<path style=" stroke:none;fill-rule:nonzero;fill:rgb(97.647059%,98.823529%,98.039216%);fill-opacity:1;" d="M 52.792969 2.089844 C 58.007812 1.550781 63.335938 1.90625 68.371094 3.410156 C 79.027344 6.46875 88.226562 14.242188 93.085938 24.265625 C 95.488281 29.125 96.886719 34.488281 97.132812 39.910156 C 97.097656 41.046875 97.300781 42.175781 97.152344 43.308594 C 97.121094 45.542969 96.820312 47.761719 96.414062 49.953125 C 96.117188 49.671875 95.816406 49.402344 95.503906 49.144531 C 95.953125 46.25 96.277344 43.3125 96.089844 40.378906 C 96.050781 39.613281 96.027344 38.847656 95.953125 38.085938 C 95.34375 32 93.304688 26.0625 90 20.925781 C 86.679688 15.710938 82.113281 11.308594 76.796875 8.191406 C 71.289062 4.960938 64.976562 3.09375 58.597656 2.941406 C 57.832031 2.828125 57.054688 2.910156 56.285156 2.882812 L 56.183594 2.960938 C 49.488281 3.054688 42.863281 5.125 37.15625 8.621094 C 31.558594 12.070312 26.847656 16.960938 23.605469 22.707031 C 21.105469 27.09375 19.488281 31.984375 18.84375 37 C 18.542969 37.371094 18.097656 37.578125 17.699219 37.820312 C 18.425781 30.347656 21.378906 23.128906 25.984375 17.234375 C 30.789062 11.054688 37.425781 6.328125 44.828125 3.867188 C 47.414062 3.003906 50.089844 2.414062 52.792969 2.089844 Z M 52.792969 2.089844 "/>
<path style=" stroke:none;fill-rule:nonzero;fill:rgb(98.823529%,99.215686%,98.823529%);fill-opacity:1;" d="M 54.550781 5.320312 C 55.339844 4.917969 56.441406 4.859375 57.101562 5.539062 C 57.550781 5.949219 57.621094 6.59375 57.773438 7.148438 C 57.34375 7.1875 56.910156 7.210938 56.480469 7.207031 C 56.332031 6.933594 56.328125 6.496094 55.988281 6.382812 C 55.714844 6.3125 55.433594 6.390625 55.160156 6.421875 C 55.136719 6.652344 55.125 6.882812 55.121094 7.117188 C 55.898438 7.40625 56.769531 7.566406 57.378906 8.179688 C 58.058594 8.828125 58.007812 9.933594 57.597656 10.714844 C 56.992188 11.867188 55.289062 12.023438 54.339844 11.234375 C 53.832031 10.75 53.738281 10.027344 53.632812 9.371094 C 54.09375 9.371094 54.558594 9.371094 55.019531 9.367188 C 55.121094 9.648438 55.160156 9.96875 55.351562 10.210938 C 55.539062 10.496094 55.902344 10.386719 56.191406 10.402344 C 56.390625 10.042969 56.503906 9.621094 56.371094 9.21875 C 55.925781 8.796875 55.265625 8.800781 54.738281 8.527344 C 53.527344 7.992188 53.398438 5.988281 54.550781 5.320312 Z M 54.550781 5.320312 "/>
<path style=" stroke:none;fill-rule:nonzero;fill:rgb(98.431373%,99.215686%,98.039216%);fill-opacity:1;" d="M 60.617188 5.386719 C 61.375 5.234375 62.320312 5.253906 62.878906 5.882812 C 63.339844 6.351562 63.398438 7.054688 63.390625 7.683594 C 62.992188 7.671875 62.59375 7.636719 62.199219 7.585938 C 62.070312 7.300781 61.992188 6.996094 61.875 6.703125 C 61.613281 6.667969 61.300781 6.449219 61.0625 6.648438 C 60.753906 6.789062 60.710938 7.277344 61.042969 7.417969 C 61.691406 7.765625 62.429688 8.03125 62.882812 8.652344 C 63.457031 9.371094 63.289062 10.445312 62.800781 11.164062 C 62.019531 12.277344 60.117188 12.21875 59.371094 11.101562 C 59.023438 10.585938 59.050781 9.933594 59.027344 9.339844 C 59.484375 9.394531 59.9375 9.457031 60.394531 9.480469 C 60.476562 9.835938 60.441406 10.253906 60.714844 10.527344 C 60.871094 10.621094 61.050781 10.660156 61.222656 10.710938 C 61.3125 10.660156 61.484375 10.5625 61.574219 10.515625 C 61.761719 10.179688 61.800781 9.796875 61.730469 9.421875 C 61.117188 9.027344 60.367188 8.835938 59.855469 8.300781 C 59.136719 7.398438 59.449219 5.746094 60.617188 5.386719 Z M 48.347656 6.34375 C 48.910156 5.894531 49.6875 5.785156 50.371094 5.964844 C 51.171875 6.25 51.710938 7.039062 51.824219 7.875 C 51.371094 7.988281 50.921875 8.101562 50.464844 8.171875 C 50.394531 7.945312 50.324219 7.722656 50.253906 7.5 C 50.015625 7.445312 49.773438 7.390625 49.53125 7.339844 C 49.292969 7.507812 48.984375 7.640625 48.921875 7.960938 C 49.0625 8.816406 49.242188 9.667969 49.441406 10.507812 C 49.546875 11.078125 50.347656 11.261719 50.726562 10.847656 C 50.984375 10.625 50.886719 10.242188 50.9375 9.941406 C 51.351562 9.8125 51.773438 9.679688 52.207031 9.621094 C 52.5 10.027344 52.472656 10.582031 52.355469 11.042969 C 52.054688 11.855469 51.21875 12.300781 50.429688 12.503906 C 49.390625 12.648438 48.214844 11.9375 48.054688 10.847656 C 47.871094 9.894531 47.675781 8.945312 47.515625 7.988281 C 47.382812 7.316406 47.847656 6.722656 48.347656 6.34375 Z M 69.769531 9.589844 C 70.109375 8.871094 70.753906 8.164062 71.609375 8.199219 C 72.792969 8.207031 74.132812 9.1875 73.933594 10.5 C 73.761719 11.402344 73.246094 12.179688 72.921875 13.03125 C 72.554688 13.800781 72.285156 14.625 71.847656 15.355469 C 71.429688 15.246094 71.050781 15.03125 70.660156 14.859375 C 70.757812 14.269531 71.078125 13.761719 71.300781 13.214844 C 71.660156 12.355469 72.074219 11.515625 72.414062 10.644531 C 72.554688 10.355469 72.371094 10.078125 72.28125 9.808594 C 71.917969 9.753906 71.410156 9.628906 71.214844 10.050781 C 70.59375 11.421875 70.007812 12.808594 69.386719 14.175781 C 68.882812 14.125 68.429688 13.875 67.996094 13.625 C 68.578125 12.273438 69.183594 10.9375 69.769531 9.589844 Z M 69.769531 9.589844 "/>
<path style=" stroke:none;fill-rule:nonzero;fill:rgb(98.039216%,99.215686%,98.039216%);fill-opacity:1;" d="M 37.242188 11.070312 C 37.636719 10.832031 38.03125 10.578125 38.449219 10.371094 C 39.382812 11.863281 40.191406 13.429688 41.113281 14.929688 C 41.804688 14.535156 42.476562 14.109375 43.179688 13.75 C 43.414062 14.140625 43.640625 14.539062 43.847656 14.945312 C 42.734375 15.546875 41.660156 16.214844 40.558594 16.835938 C 39.449219 14.914062 38.367188 12.980469 37.242188 11.070312 Z M 37.242188 11.070312 "/>
<path style=" stroke:none;fill-rule:nonzero;fill:rgb(98.431373%,99.215686%,98.039216%);fill-opacity:1;" d="M 75.738281 11.546875 C 76.730469 10.882812 78.25 11.269531 78.808594 12.332031 C 78.976562 12.609375 79.054688 12.929688 79.160156 13.238281 C 79.132812 13.671875 79.074219 14.128906 78.804688 14.488281 C 78.222656 15.292969 77.683594 16.132812 77.078125 16.917969 C 76.632812 17.480469 75.847656 17.597656 75.183594 17.445312 C 73.945312 17.210938 73.035156 15.773438 73.535156 14.566406 C 73.855469 13.988281 74.277344 13.472656 74.636719 12.917969 C 74.984375 12.449219 75.261719 11.902344 75.738281 11.546875 Z M 75.738281 11.546875 "/>
<path style=" stroke:none;fill-rule:nonzero;fill:rgb(0.392157%,0.392157%,0.392157%);fill-opacity:1;" d="M 76.070312 13.105469 C 76.238281 12.832031 76.523438 12.6875 76.808594 12.5625 C 77.039062 12.667969 77.273438 12.773438 77.5 12.886719 C 77.625 13.238281 77.78125 13.648438 77.539062 13.988281 C 77.175781 14.546875 76.792969 15.09375 76.398438 15.636719 C 76.039062 16.082031 75.378906 16.101562 74.941406 15.753906 C 74.882812 15.582031 74.820312 15.410156 74.757812 15.238281 C 75.046875 14.445312 75.613281 13.800781 76.070312 13.105469 Z M 76.070312 13.105469 "/>
<path style=" stroke:none;fill-rule:nonzero;fill:rgb(98.431373%,99.215686%,98.431373%);fill-opacity:1;" d="M 33.527344 13.894531 C 34.289062 13.097656 35.734375 12.921875 36.527344 13.761719 C 37.578125 14.910156 38.660156 16.035156 39.683594 17.210938 C 39.351562 17.519531 39.027344 17.84375 38.695312 18.152344 C 37.601562 17.101562 36.660156 15.90625 35.574219 14.851562 C 35.34375 14.605469 34.992188 14.710938 34.699219 14.699219 C 34.511719 14.992188 34.300781 15.402344 34.570312 15.714844 C 35.539062 16.820312 36.554688 17.886719 37.566406 18.953125 C 37.5625 19.046875 37.558594 19.144531 37.558594 19.238281 C 37.214844 19.515625 36.902344 19.832031 36.578125 20.132812 C 35.664062 19.113281 34.707031 18.136719 33.804688 17.113281 C 33.554688 16.851562 33.277344 16.492188 32.867188 16.605469 C 32.445312 16.726562 32.1875 17.300781 32.542969 17.636719 C 33.546875 18.769531 34.59375 19.871094 35.632812 20.976562 C 35.324219 21.351562 34.953125 21.664062 34.585938 21.980469 C 33.542969 20.890625 32.535156 19.765625 31.5 18.671875 C 30.898438 18.089844 30.792969 17.140625 31.121094 16.390625 C 31.386719 15.605469 32.191406 15.152344 32.984375 15.117188 C 33.101562 14.683594 33.207031 14.226562 33.527344 13.894531 Z M 33.527344 13.894531 "/>
<path style=" stroke:none;fill-rule:nonzero;fill:rgb(100%,100%,100%);fill-opacity:1;" d="M 45.714844 16.125 C 51.128906 13.625 57.34375 12.957031 63.167969 14.207031 C 68.789062 15.390625 74.007812 18.390625 77.921875 22.617188 C 80.0625 24.9375 81.828125 27.609375 83.117188 30.5 C 83.988281 32.5625 84.699219 34.710938 85.054688 36.929688 C 82.125 36.351562 79.234375 35.566406 76.425781 34.558594 C 75.089844 34.070312 73.769531 33.535156 72.523438 32.851562 C 72.324219 32.746094 72.148438 32.613281 72.011719 32.4375 C 71.449219 31.761719 70.882812 31.089844 70.316406 30.417969 C 70.175781 30.15625 69.867188 30.253906 69.632812 30.242188 C 69.582031 29.96875 69.539062 29.695312 69.503906 29.417969 C 68.949219 28.847656 68.960938 28.039062 68.933594 27.292969 C 68.707031 25.035156 68.816406 22.714844 68.15625 20.515625 C 67.289062 18.570312 65.507812 17 63.394531 16.628906 C 61.898438 16.394531 60.351562 16.511719 58.898438 16.929688 C 56.195312 17.691406 53.726562 19.097656 51.382812 20.625 C 49.265625 22.023438 47.257812 23.582031 45.308594 25.210938 C 42.902344 25.347656 40.679688 26.375 38.5625 27.460938 C 37.175781 28.140625 35.792969 28.894531 34.273438 29.214844 C 33.515625 29.308594 32.753906 29.367188 32.007812 29.550781 C 34.855469 23.660156 39.785156 18.824219 45.714844 16.125 Z M 45.714844 16.125 "/>
<path style=" stroke:none;fill-rule:nonzero;fill:rgb(98.431373%,99.215686%,98.431373%);fill-opacity:1;" d="M 80.628906 14.796875 C 80.890625 14.535156 81.113281 14.15625 81.53125 14.183594 C 82.207031 15.011719 83.289062 15.554688 83.574219 16.652344 C 83.675781 17.253906 83.542969 17.921875 83.117188 18.371094 C 82.492188 19.078125 81.851562 19.773438 81.191406 20.445312 C 80.660156 21.007812 79.796875 21.054688 79.101562 20.832031 C 78.234375 20.355469 77.566406 19.59375 76.847656 18.925781 C 78.070312 17.515625 79.390625 16.191406 80.628906 14.796875 Z M 80.628906 14.796875 "/>
<path style=" stroke:none;fill-rule:nonzero;fill:rgb(0.392157%,0%,0.392157%);fill-opacity:1;" d="M 81.425781 16.15625 C 81.816406 16.394531 82.140625 16.75 82.164062 17.234375 C 81.46875 17.992188 80.773438 18.75 80.066406 19.496094 C 79.847656 19.492188 79.625 19.488281 79.410156 19.484375 C 79.222656 19.300781 79.039062 19.121094 78.851562 18.941406 C 79.722656 18.027344 80.582031 17.097656 81.425781 16.15625 Z M 81.425781 16.15625 "/>
<path style=" stroke:none;fill-rule:nonzero;fill:rgb(100%,100%,100%);fill-opacity:1;" d="M 55.101562 21.269531 C 57.234375 20.035156 59.503906 18.867188 61.976562 18.582031 C 63.546875 18.367188 65.316406 18.835938 66.296875 20.160156 C 67.097656 21.042969 67.1875 22.289062 67.296875 23.421875 C 67.4375 24.558594 67.375 25.707031 67.546875 26.84375 C 67.109375 26.925781 66.675781 27.054688 66.226562 27.089844 C 65.996094 26.980469 65.769531 26.875 65.566406 26.722656 C 65.488281 26.414062 65.441406 26.097656 65.394531 25.785156 C 63.589844 26.121094 61.6875 26.496094 60.210938 27.667969 C 59.46875 28.238281 59.03125 29.121094 58.878906 30.035156 C 58.875 30.3125 58.871094 30.589844 58.890625 30.867188 C 59.140625 31.078125 59.496094 31.023438 59.796875 31.097656 C 59.378906 31.875 59 32.691406 58.886719 33.578125 L 58.886719 34.195312 C 59.59375 34.085938 60.191406 33.679688 60.851562 33.433594 C 60.824219 33.59375 60.765625 33.910156 60.738281 34.066406 C 60.726562 34.285156 60.710938 34.5 60.703125 34.714844 C 60.839844 35.058594 61.003906 35.386719 61.199219 35.699219 C 62.148438 35.492188 62.972656 34.9375 63.878906 34.609375 L 63.773438 35.140625 C 63.8125 35.246094 63.882812 35.453125 63.917969 35.558594 C 64.894531 35.316406 65.820312 34.894531 66.644531 34.3125 C 67.714844 33.617188 68.757812 32.707031 70.0625 32.535156 C 70.792969 33 71.132812 33.953125 71.902344 34.398438 C 73.152344 35.160156 74.511719 35.722656 75.875 36.25 C 78.671875 37.296875 81.546875 38.121094 84.46875 38.738281 C 85.984375 39.074219 87.53125 39.300781 89.003906 39.816406 C 89.828125 40.117188 90.65625 40.625 91.023438 41.464844 C 91.707031 43.113281 91.699219 45.066406 90.890625 46.671875 C 90.167969 48.015625 88.875 49.113281 87.363281 49.40625 C 81.308594 50.816406 75.160156 51.765625 69.003906 52.589844 C 67.175781 52.792969 65.351562 53.015625 63.519531 53.171875 C 59.292969 53.550781 55.050781 53.765625 50.804688 53.714844 C 49.414062 53.734375 48.007812 53.699219 46.652344 53.375 C 46.117188 53.171875 45.570312 52.945312 45.1875 52.503906 C 44.660156 51.988281 44.515625 51.238281 44.378906 50.542969 C 44.15625 49.269531 43.851562 48 43.808594 46.695312 C 43.761719 45.566406 44.144531 44.484375 44.355469 43.386719 C 45.015625 40.078125 45.535156 36.734375 46.375 33.460938 C 46.484375 33.058594 46.421875 32.636719 46.53125 32.234375 C 46.976562 30.375 47.496094 28.53125 47.972656 26.679688 C 48.03125 26.523438 48.050781 26.332031 48.183594 26.21875 C 50.386719 24.429688 52.664062 22.71875 55.101562 21.269531 Z M 55.101562 21.269531 "/>
<path style=" stroke:none;fill-rule:nonzero;fill:rgb(98.431373%,99.215686%,98.431373%);fill-opacity:1;" d="M 80.476562 22.570312 C 82.261719 21.269531 84.042969 19.960938 85.828125 18.664062 C 86.46875 19.589844 87.144531 20.492188 87.792969 21.410156 C 87.421875 21.671875 87.074219 21.96875 86.675781 22.179688 C 86.238281 21.679688 85.871094 21.121094 85.488281 20.578125 C 85.207031 20.78125 84.917969 20.976562 84.628906 21.167969 C 84.648438 21.621094 85.015625 21.925781 85.226562 22.296875 C 84.886719 22.550781 84.546875 22.800781 84.195312 23.039062 C 83.960938 22.710938 83.734375 22.375 83.472656 22.070312 C 83.167969 22.25 82.882812 22.457031 82.59375 22.660156 L 82.394531 22.914062 C 82.78125 23.441406 83.171875 23.96875 83.535156 24.515625 C 83.171875 24.792969 82.800781 25.058594 82.417969 25.304688 C 81.78125 24.382812 81.066406 23.523438 80.476562 22.570312 Z M 80.476562 22.570312 "/>
<path style=" stroke:none;fill-rule:nonzero;fill:rgb(98.823529%,99.215686%,98.039216%);fill-opacity:1;" d="M 28.292969 19.398438 C 28.4375 19.203125 28.554688 18.976562 28.757812 18.835938 C 29.15625 19.011719 29.472656 19.332031 29.828125 19.585938 C 29.546875 19.976562 29.261719 20.359375 29.003906 20.765625 C 30.417969 21.785156 31.8125 22.828125 33.226562 23.839844 C 33.015625 24.242188 32.742188 24.597656 32.46875 24.957031 C 31.03125 23.929688 29.617188 22.863281 28.175781 21.839844 C 27.933594 22.207031 27.699219 22.582031 27.417969 22.921875 C 26.96875 22.898438 26.65625 22.453125 26.28125 22.238281 C 26.894531 21.25 27.640625 20.359375 28.292969 19.398438 Z M 28.292969 19.398438 "/>
<path style=" stroke:none;fill-rule:nonzero;fill:rgb(98.823529%,99.607843%,98.431373%);fill-opacity:1;" d="M 24.707031 25.179688 C 24.949219 24.707031 25.1875 24.238281 25.480469 23.800781 C 27.371094 24.835938 29.308594 25.792969 31.167969 26.882812 C 31.191406 27.402344 30.753906 27.871094 30.511719 28.316406 C 29.730469 27.941406 29.011719 27.425781 28.195312 27.132812 C 28.074219 27.398438 27.949219 27.667969 27.832031 27.941406 C 28.566406 28.382812 29.382812 28.691406 30.082031 29.203125 C 29.859375 29.664062 29.613281 30.113281 29.375 30.5625 C 27.433594 29.582031 25.535156 28.519531 23.617188 27.503906 C 23.542969 27.214844 23.796875 26.941406 23.898438 26.679688 C 24.035156 26.488281 24.089844 26.183594 24.328125 26.097656 C 25.105469 26.445312 25.824219 26.917969 26.601562 27.273438 C 26.746094 27.003906 26.894531 26.734375 27.050781 26.472656 C 26.273438 26.035156 25.476562 25.628906 24.707031 25.179688 Z M 24.707031 25.179688 "/>
<path style=" stroke:none;fill-rule:nonzero;fill:rgb(96.470588%,98.823529%,97.254902%);fill-opacity:1;" d="M 83.101562 25.910156 C 83.273438 25.4375 83.859375 25.40625 84.230469 25.65625 C 84.390625 25.992188 84.40625 26.347656 84.21875 26.679688 C 84.035156 26.753906 83.847656 26.824219 83.664062 26.902344 C 83.320312 26.710938 82.820312 26.363281 83.101562 25.910156 Z M 83.101562 25.910156 "/>
<path style=" stroke:none;fill-rule:nonzero;fill:rgb(97.254902%,98.431373%,97.647059%);fill-opacity:1;" d="M 60.527344 29.011719 C 61.933594 27.792969 63.703125 27.175781 65.441406 26.628906 L 65.566406 26.722656 C 65.769531 26.875 65.996094 26.980469 66.226562 27.089844 C 64.292969 27.859375 62.433594 28.796875 60.527344 29.625 C 60.523438 29.417969 60.523438 29.214844 60.527344 29.011719 Z M 60.527344 29.011719 "/>
<path style=" stroke:none;fill-rule:nonzero;fill:rgb(98.823529%,99.215686%,98.431373%);fill-opacity:1;" d="M 84.722656 28.015625 C 84.976562 27.410156 85.558594 27.039062 86.132812 26.785156 C 86.332031 27.242188 86.539062 27.695312 86.734375 28.15625 C 86.335938 28.371094 85.96875 28.6875 86.054688 29.1875 C 86.28125 29.246094 86.523438 29.449219 86.765625 29.324219 C 88.214844 28.738281 89.601562 28.003906 91.03125 27.375 C 91.238281 27.859375 91.472656 28.332031 91.664062 28.820312 C 90.625 29.328125 89.5625 29.796875 88.519531 30.304688 C 87.800781 30.597656 87.054688 31.027344 86.253906 30.875 C 85.023438 30.671875 84.183594 29.167969 84.722656 28.015625 Z M 84.722656 28.015625 "/>
<path style=" stroke:none;fill-rule:nonzero;fill:rgb(100%,100%,100%);fill-opacity:1;" d="M 35.511719 31.226562 C 39.171875 30.484375 42.125 27.703125 45.886719 27.3125 C 45.449219 29.101562 44.925781 30.867188 44.496094 32.660156 C 44.371094 33.222656 44.390625 33.808594 44.21875 34.363281 C 43.238281 38.183594 42.75 42.113281 41.839844 45.953125 C 41.59375 47.105469 41.730469 48.296875 41.945312 49.445312 C 42.054688 50.210938 42.214844 50.972656 42.511719 51.691406 C 41.261719 51.746094 40.03125 52.175781 38.964844 52.832031 C 37.746094 53.554688 36.832031 54.820312 35.367188 55.058594 C 33.527344 55.191406 31.949219 54 30.152344 53.863281 C 29.5 53.863281 28.890625 54.191406 28.234375 54.164062 C 28.355469 54.074219 28.472656 53.988281 28.59375 53.902344 C 29.515625 53.417969 30.429688 52.855469 31.476562 52.703125 C 32.757812 52.558594 34.042969 52.464844 35.3125 52.253906 C 36.007812 52.128906 36.648438 51.796875 37.179688 51.332031 C 37.875 50.738281 39.023438 50.609375 39.339844 49.636719 C 39.40625 48.941406 39.261719 47.824219 38.402344 47.730469 C 37.667969 47.839844 37.0625 48.332031 36.496094 48.78125 C 35.554688 49.527344 34.703125 50.398438 33.6875 51.050781 C 33.226562 51.367188 32.648438 51.273438 32.128906 51.28125 C 31.351562 51.269531 30.617188 50.976562 29.847656 50.917969 C 28.6875 51.039062 27.578125 51.4375 26.476562 51.816406 C 25.632812 52.078125 24.773438 52.363281 23.878906 52.320312 C 22.667969 52.285156 21.507812 51.839844 20.4375 51.292969 C 21.175781 51.269531 21.917969 51.335938 22.652344 51.214844 C 25.132812 50.855469 27.378906 49.644531 29.792969 49.042969 C 30.566406 48.816406 31.394531 49.050781 32.15625 48.753906 C 33.292969 48.355469 34.367188 47.394531 34.523438 46.136719 C 34.601562 45.648438 34.410156 45.195312 34.1875 44.78125 C 33.5 44.15625 32.546875 44.535156 31.84375 44.917969 C 29.8125 46.078125 28.140625 47.773438 26.125 48.957031 C 25.578125 49.269531 24.957031 49.453125 24.324219 49.425781 C 22.972656 49.390625 21.675781 48.957031 20.347656 48.75 C 19.125 48.519531 17.875 48.566406 16.632812 48.613281 C 18.96875 47.476562 21.628906 47.59375 24.128906 47.132812 C 25.042969 46.957031 26.039062 46.835938 26.789062 46.230469 C 27.085938 46.011719 27.097656 45.617188 27.144531 45.285156 C 26.832031 44.398438 26.105469 43.554688 25.109375 43.535156 C 23.5625 43.582031 22.277344 44.570312 21.03125 45.386719 C 20.171875 45.945312 19.304688 46.75 18.199219 46.621094 C 17.070312 46.46875 15.964844 46.089844 14.8125 46.105469 L 14.710938 46.039062 C 13.601562 46.019531 12.496094 46.136719 11.40625 46.34375 C 12.324219 45.765625 13.25 45.164062 14.304688 44.867188 C 15.546875 44.5 16.867188 44.648438 18.128906 44.417969 C 20.238281 43.816406 21.59375 41.921875 23.480469 40.914062 C 24.042969 40.636719 24.679688 40.40625 25.3125 40.546875 C 26.902344 40.804688 27.847656 42.367188 29.371094 42.789062 C 30.726562 43.125 32.148438 42.605469 33.25 41.804688 C 33.84375 41.386719 34.332031 40.785156 34.496094 40.058594 C 34.222656 39.292969 33.269531 39.144531 32.566406 39.210938 C 31.382812 39.316406 30.6875 40.40625 29.6875 40.910156 C 28.203125 40.746094 27.117188 39.605469 25.75 39.121094 C 24.871094 38.898438 23.855469 39.007812 23.140625 39.613281 C 22.007812 40.53125 20.820312 41.453125 19.398438 41.867188 C 17.746094 42.40625 15.964844 42.140625 14.351562 41.59375 C 16.039062 41.421875 17.75 41.058594 19.210938 40.152344 C 21 39.078125 22.335938 37.167969 24.484375 36.757812 C 25.675781 36.445312 26.859375 36.984375 27.886719 37.554688 C 28.535156 37.878906 29.238281 38.269531 29.988281 38.125 C 31.121094 37.863281 31.941406 36.984375 32.894531 36.386719 C 33.34375 36.09375 33.957031 36.066406 34.296875 35.609375 C 34.585938 35.367188 34.488281 34.972656 34.515625 34.644531 C 34.21875 34.316406 33.820312 34.054688 33.363281 34.144531 C 31.875 34.277344 30.996094 35.734375 29.609375 36.132812 C 29.085938 36.246094 28.585938 36.003906 28.09375 35.847656 C 27.277344 35.5625 26.425781 35.351562 25.554688 35.394531 C 24.757812 35.351562 24 35.628906 23.222656 35.765625 C 23.589844 35.441406 23.949219 35.09375 24.40625 34.902344 C 25.492188 34.40625 26.722656 34.621094 27.863281 34.367188 C 28.902344 34.109375 29.695312 33.351562 30.585938 32.800781 C 31.515625 32.164062 32.5625 31.699219 33.667969 31.484375 C 34.273438 31.335938 34.902344 31.371094 35.511719 31.226562 Z M 35.511719 31.226562 "/>
<path style=" stroke:none;fill-rule:nonzero;fill:rgb(93.333333%,98.039216%,97.647059%);fill-opacity:1;" d="M 61.542969 31.171875 C 62.828125 30.25 64.066406 29.203125 65.542969 28.59375 C 65.210938 28.976562 64.832031 29.3125 64.433594 29.621094 C 62.917969 30.804688 61.378906 31.957031 59.800781 33.0625 C 60.117188 32.234375 60.90625 31.738281 61.542969 31.171875 Z M 61.542969 31.171875 "/>
<path style=" stroke:none;fill-rule:nonzero;fill:rgb(99.215686%,99.215686%,98.823529%);fill-opacity:1;" d="M 66.859375 30.074219 C 67.296875 29.917969 67.769531 29.875 68.226562 29.984375 C 68.261719 30.816406 67.46875 31.304688 66.9375 31.816406 C 65.289062 33.144531 63.371094 34.070312 61.425781 34.867188 C 61.539062 34.050781 61.816406 33.273438 62.105469 32.511719 C 63.632812 31.597656 65.164062 30.640625 66.859375 30.074219 Z M 66.859375 30.074219 "/>
<path style=" stroke:none;fill-rule:nonzero;fill:rgb(98.431373%,99.607843%,98.431373%);fill-opacity:1;" d="M 89.46875 32.183594 C 89.804688 31.558594 90.535156 31.3125 91.195312 31.242188 C 92.472656 31.257812 93.195312 32.777344 92.902344 33.894531 C 92.703125 34.660156 91.960938 35.050781 91.289062 35.320312 C 91.171875 34.902344 91.066406 34.480469 90.960938 34.0625 C 91.191406 33.867188 91.625 33.78125 91.625 33.414062 C 91.632812 33.191406 91.585938 32.972656 91.5625 32.753906 C 91.347656 32.6875 91.132812 32.628906 90.914062 32.582031 L 90.707031 32.941406 C 90.675781 33.851562 90.617188 34.894531 89.894531 35.546875 C 89.363281 36.085938 88.539062 36.074219 87.84375 35.96875 C 86.640625 35.648438 86.085938 34.136719 86.519531 33.023438 C 86.832031 32.347656 87.542969 32.03125 88.199219 31.789062 C 88.335938 32.234375 88.449219 32.691406 88.558594 33.148438 C 88.210938 33.363281 87.609375 33.527344 87.707031 34.054688 C 87.648438 34.332031 87.921875 34.460938 88.082031 34.632812 C 88.429688 34.597656 88.878906 34.652344 89.089844 34.296875 C 89.269531 33.605469 89.160156 32.84375 89.46875 32.183594 Z M 89.46875 32.183594 "/>
<path style=" stroke:none;fill-rule:nonzero;fill:rgb(0.392157%,0.392157%,0.784314%);fill-opacity:1;" d="M 51.371094 38.976562 C 51.78125 37.617188 53.105469 36.824219 54.445312 36.65625 C 55.511719 36.589844 56.671875 36.757812 57.519531 37.476562 C 58.097656 37.921875 58.320312 38.65625 58.519531 39.332031 C 58.847656 39.332031 59.175781 39.339844 59.503906 39.363281 C 59.5625 38.492188 60.300781 37.835938 61.070312 37.550781 C 61.546875 37.355469 62 37.628906 62.414062 37.832031 C 62.769531 37.660156 63.082031 37.332031 63.507812 37.394531 C 63.875 37.351562 64.242188 37.707031 64.589844 37.5 C 65.105469 37.210938 65.773438 37.121094 66.289062 37.457031 C 66.828125 37.710938 67.011719 38.332031 67.152344 38.863281 C 68.234375 38.484375 69.535156 38.40625 70.492188 39.148438 C 70.769531 39.027344 71.046875 38.894531 71.324219 38.757812 C 71.523438 37.828125 72.542969 37.214844 73.449219 37.453125 C 74.457031 37.671875 75.105469 38.949219 74.453125 39.835938 C 74.609375 40.375 74.652344 40.953125 74.445312 41.488281 C 74.851562 41.890625 75.289062 42.378906 75.195312 43.003906 C 75.269531 43.84375 74.652344 44.515625 74.011719 44.960938 C 74.421875 45.589844 74.167969 46.34375 74.40625 47.015625 C 74.5625 47.664062 74.441406 48.410156 73.925781 48.867188 C 73.214844 49.632812 72.089844 49.519531 71.148438 49.691406 C 70.980469 49.582031 70.808594 49.472656 70.636719 49.363281 C 69.679688 49.816406 68.5 49.902344 67.625 49.226562 C 67.277344 49.554688 66.859375 49.796875 66.40625 49.929688 C 65.9375 50.574219 65.324219 51.222656 64.507812 51.367188 C 63.722656 51.394531 63.175781 50.679688 63.035156 49.960938 C 62.246094 50.210938 61.429688 50.097656 60.664062 49.832031 C 59.992188 50.375 59.058594 50.4375 58.261719 50.167969 C 57.917969 50.839844 57.4375 51.453125 56.753906 51.792969 C 55.289062 52.527344 53.28125 52.28125 52.230469 50.945312 C 51.351562 49.855469 51.496094 48.152344 52.53125 47.214844 C 52.375 46.875 52.257812 46.523438 52.195312 46.160156 C 51.988281 46.097656 51.785156 46.035156 51.578125 45.976562 C 51.382812 46.078125 51.1875 46.183594 50.992188 46.285156 C 49.957031 46.289062 48.910156 46.183594 47.894531 46.457031 C 47.609375 46.25 47.265625 46.089844 47.078125 45.78125 C 46.902344 45.460938 46.9375 45.085938 46.929688 44.738281 C 45.605469 44.34375 45.175781 42.480469 46.09375 41.492188 C 46.664062 40.871094 47.546875 40.769531 48.335938 40.808594 C 48.835938 40.5625 49.429688 40.234375 49.964844 40.609375 C 50.636719 40.90625 50.542969 41.746094 50.886719 42.28125 C 51.398438 42.625 51.96875 42.140625 52.519531 42.140625 C 51.410156 41.554688 51.101562 40.125 51.371094 38.976562 Z M 51.371094 38.976562 "/>
<path style=" stroke:none;fill-rule:nonzero;fill:rgb(97.647059%,98.823529%,98.039216%);fill-opacity:1;" d="M 53.875 37.820312 C 54.773438 37.550781 55.800781 37.570312 56.621094 38.0625 C 57.484375 38.546875 57.765625 39.828125 57.171875 40.632812 C 56.925781 40.960938 56.515625 41.089844 56.15625 41.246094 C 56.597656 42.410156 57.273438 43.734375 58.550781 44.109375 C 59.289062 44.3125 59.867188 43.578125 60.582031 43.648438 C 60.980469 43.660156 60.949219 44.160156 60.984375 44.449219 C 60.324219 45.472656 58.882812 45.652344 57.851562 45.140625 C 56.8125 44.605469 56.144531 43.554688 55.722656 42.492188 C 55.558594 42.070312 55.421875 41.636719 55.28125 41.203125 C 55.214844 41.214844 55.078125 41.230469 55.015625 41.238281 C 55.03125 41.496094 55.046875 41.753906 55.066406 42.011719 C 55.226562 42.085938 55.390625 42.160156 55.554688 42.234375 C 55.511719 42.421875 55.46875 42.613281 55.417969 42.804688 C 55.125 43.328125 54.671875 43.746094 54.148438 44.035156 C 54 43.890625 53.8125 43.78125 53.714844 43.59375 C 53.835938 43.242188 54.113281 42.949219 54.125 42.558594 C 54.144531 41.890625 54.054688 41.222656 54.066406 40.554688 C 54.082031 40.15625 53.800781 39.847656 53.59375 39.542969 C 53.917969 39.101562 54.46875 39.179688 54.949219 39.191406 C 54.996094 39.273438 55.042969 39.359375 55.09375 39.441406 C 55.027344 39.796875 55 40.152344 54.988281 40.511719 C 55.425781 40.511719 55.957031 40.566406 56.242188 40.152344 C 56.6875 39.648438 56.273438 38.871094 55.695312 38.695312 C 54.808594 38.390625 53.527344 38.613281 53.171875 39.605469 C 53.320312 40.164062 53.867188 40.566406 53.832031 41.175781 C 53.597656 41.265625 53.347656 41.472656 53.089844 41.332031 C 52.363281 40.953125 52.117188 40.003906 52.351562 39.261719 C 52.535156 38.535156 53.1875 38.019531 53.875 37.820312 Z M 53.875 37.820312 "/>
<path style=" stroke:none;fill-rule:nonzero;fill:rgb(95.686275%,98.039216%,97.647059%);fill-opacity:1;" d="M 65.148438 38.3125 C 65.386719 38.226562 65.640625 38.28125 65.882812 38.289062 C 66.089844 38.660156 66.226562 39.234375 65.839844 39.535156 C 65.535156 39.65625 65.082031 39.636719 64.945312 39.28125 C 64.71875 38.960938 64.921875 38.566406 65.148438 38.3125 Z M 65.148438 38.3125 "/>
<path style=" stroke:none;fill-rule:nonzero;fill:rgb(97.254902%,98.823529%,97.647059%);fill-opacity:1;" d="M 60.515625 39.265625 C 60.710938 38.84375 61.152344 38.617188 61.558594 38.4375 C 62.109375 39.703125 61.792969 41.132812 62.042969 42.460938 C 62.179688 42.621094 62.335938 42.765625 62.488281 42.917969 C 62.492188 43 62.5 43.167969 62.503906 43.253906 C 61.96875 43.507812 61.367188 43.441406 60.796875 43.402344 C 60.789062 43.308594 60.78125 43.117188 60.777344 43.023438 C 60.886719 42.855469 60.996094 42.6875 61.082031 42.503906 C 61.058594 41.59375 60.9375 40.683594 60.953125 39.773438 C 60.804688 39.605469 60.425781 39.5625 60.515625 39.265625 Z M 62.617188 38.996094 C 62.933594 38.71875 63.257812 38.425781 63.679688 38.339844 C 64.003906 39.074219 63.945312 39.902344 64.023438 40.6875 C 64.082031 41.378906 63.878906 42.207031 64.4375 42.746094 L 64.996094 42.746094 C 65.070312 42.65625 65.214844 42.484375 65.285156 42.394531 C 65.289062 41.929688 65.289062 41.464844 65.269531 41 C 65.132812 40.96875 64.859375 40.902344 64.726562 40.867188 C 64.851562 40.3125 65.347656 39.984375 65.835938 39.78125 C 66.167969 40.5625 66.011719 41.4375 66.171875 42.257812 C 66.335938 42.429688 66.5 42.597656 66.667969 42.769531 C 66.660156 42.847656 66.652344 42.992188 66.648438 43.066406 C 66.152344 43.160156 65.648438 43.203125 65.148438 43.207031 C 64.992188 43.089844 64.835938 42.976562 64.683594 42.859375 C 64.308594 43.554688 63.394531 43.34375 62.769531 43.203125 C 62.902344 42.832031 63.210938 42.503906 63.160156 42.085938 C 63.128906 41.417969 63.082031 40.75 63.050781 40.082031 C 63.027344 39.921875 63.007812 39.765625 62.992188 39.605469 C 62.667969 39.550781 62.625 39.269531 62.617188 38.996094 Z M 62.617188 38.996094 "/>
<path style=" stroke:none;fill-rule:nonzero;fill:rgb(96.470588%,98.039216%,96.862745%);fill-opacity:1;" d="M 72.421875 38.75 C 72.738281 38.144531 73.867188 38.429688 73.703125 39.160156 C 73.492188 39.523438 73.070312 39.347656 72.742188 39.367188 C 73.097656 39.851562 73.78125 40.292969 73.550781 40.988281 C 73.273438 41.636719 72.472656 41.6875 71.890625 41.882812 C 71.859375 41.949219 71.796875 42.082031 71.765625 42.148438 C 72.398438 42.476562 73.097656 41.964844 73.734375 42.277344 C 74.042969 42.382812 74.15625 42.71875 74.285156 42.992188 C 74.066406 44.058594 72.878906 44.472656 71.917969 44.398438 C 71.507812 44.324219 70.96875 44.265625 70.757812 43.859375 C 70.566406 43.484375 70.914062 43.027344 71.3125 43.101562 C 71.65625 43.34375 71.957031 43.65625 72.339844 43.847656 C 72.6875 43.710938 73.324219 43.652344 73.207031 43.125 C 73.019531 42.863281 72.664062 42.894531 72.382812 42.917969 C 71.957031 42.953125 71.535156 42.953125 71.109375 42.941406 C 71 42.832031 70.890625 42.722656 70.78125 42.613281 C 70.777344 42.46875 70.777344 42.328125 70.777344 42.191406 C 70.949219 42.035156 71.117188 41.878906 71.289062 41.730469 C 71.097656 41.503906 70.800781 41.332031 70.746094 41.019531 C 70.636719 40.671875 70.832031 40.347656 70.960938 40.039062 C 71.429688 39.785156 71.941406 39.640625 72.464844 39.570312 C 72.390625 39.304688 72.175781 38.984375 72.421875 38.75 Z M 72.421875 38.75 "/>
<path style=" stroke:none;fill-rule:nonzero;fill:rgb(97.254902%,98.431373%,97.647059%);fill-opacity:1;" d="M 68.332031 40.023438 C 68.703125 39.789062 69.191406 39.476562 69.617188 39.765625 C 70.082031 40.082031 70.015625 40.695312 70.0625 41.183594 C 70.042969 41.601562 70.488281 41.804688 70.515625 42.207031 C 70.132812 42.621094 69.75 43.316406 69.082031 43.066406 C 69.203125 42.257812 69.421875 41.378906 69.042969 40.609375 C 68.808594 40.667969 68.578125 40.730469 68.34375 40.792969 C 68.285156 41.117188 68.167969 41.441406 68.214844 41.777344 C 68.253906 42.226562 68.667969 42.480469 68.871094 42.851562 C 68.339844 43.117188 67.746094 43.117188 67.167969 43.085938 L 66.929688 42.789062 C 67.078125 42.632812 67.226562 42.480469 67.378906 42.335938 C 67.421875 42.210938 67.464844 42.085938 67.507812 41.960938 C 67.441406 41.628906 67.410156 41.292969 67.394531 40.953125 L 66.9375 40.867188 C 66.941406 40.628906 67 40.402344 67.082031 40.1875 C 67.34375 40.007812 67.605469 39.828125 67.875 39.65625 C 68.039062 39.847656 68.152344 40.066406 68.261719 40.292969 C 68.277344 40.226562 68.316406 40.09375 68.332031 40.023438 Z M 68.332031 40.023438 "/>
<path style=" stroke:none;fill-rule:nonzero;fill:rgb(1.176471%,0.784314%,2.745098%);fill-opacity:1;" d="M 71.578125 40.660156 C 71.691406 40.222656 72.199219 40.25 72.550781 40.308594 C 72.664062 40.480469 72.753906 40.671875 72.820312 40.867188 C 72.574219 41.015625 72.3125 41.132812 72.046875 41.242188 C 71.863281 41.085938 71.429688 40.996094 71.578125 40.660156 Z M 71.578125 40.660156 "/>
<path style=" stroke:none;fill-rule:nonzero;fill:rgb(97.254902%,98.431373%,96.470588%);fill-opacity:1;" d="M 58.207031 40.460938 C 58.878906 40.128906 59.796875 40.355469 60.148438 41.046875 C 60.464844 41.742188 60.484375 42.667969 59.910156 43.234375 C 59.488281 43.703125 58.769531 43.652344 58.214844 43.515625 C 57.050781 43 57.035156 40.980469 58.207031 40.460938 Z M 58.207031 40.460938 "/>
<path style=" stroke:none;fill-rule:nonzero;fill:rgb(8.235294%,12.54902%,15.686275%);fill-opacity:1;" d="M 55.015625 41.238281 C 55.082031 41.230469 55.214844 41.214844 55.28125 41.203125 C 55.421875 41.636719 55.558594 42.070312 55.722656 42.492188 C 55.621094 42.597656 55.519531 42.699219 55.421875 42.804688 C 55.46875 42.613281 55.511719 42.425781 55.554688 42.234375 C 55.390625 42.160156 55.226562 42.085938 55.066406 42.011719 C 55.046875 41.753906 55.03125 41.496094 55.015625 41.238281 Z M 55.015625 41.238281 "/>
<path style=" stroke:none;fill-rule:nonzero;fill:rgb(0.784314%,0.392157%,1.176471%);fill-opacity:1;" d="M 58.394531 41.261719 C 58.722656 40.894531 59.40625 41.132812 59.464844 41.617188 C 59.511719 42.015625 59.589844 42.566406 59.15625 42.789062 C 58.855469 42.832031 58.449219 42.871094 58.308594 42.527344 C 58.125 42.144531 58.089844 41.585938 58.394531 41.261719 Z M 58.394531 41.261719 "/>
<path style=" stroke:none;fill-rule:nonzero;fill:rgb(94.901961%,98.039216%,97.647059%);fill-opacity:1;" d="M 48.808594 41.839844 C 49.03125 41.59375 49.300781 41.433594 49.640625 41.503906 C 49.640625 41.78125 49.683594 42.117188 49.410156 42.292969 C 49.171875 42.351562 48.925781 42.355469 48.679688 42.375 C 48.714844 42.964844 48.707031 43.554688 48.757812 44.144531 C 48.863281 44.273438 48.96875 44.40625 49.074219 44.539062 C 48.785156 44.933594 48.488281 45.453125 47.921875 45.410156 C 48.023438 44.785156 48.363281 44.078125 47.941406 43.5 C 47.695312 43.886719 47.042969 43.832031 46.796875 43.46875 C 46.449219 43.066406 46.519531 42.359375 46.972656 42.058594 C 47.503906 41.667969 48.203125 41.90625 48.808594 41.839844 Z M 48.808594 41.839844 "/>
<path style=" stroke:none;fill-rule:nonzero;fill:rgb(1.176471%,1.568627%,3.137255%);fill-opacity:1;" d="M 47.140625 43.054688 C 47.203125 42.804688 47.164062 42.472656 47.457031 42.367188 C 47.652344 42.324219 47.855469 42.304688 48.058594 42.304688 C 48.070312 42.605469 48.089844 42.90625 48.117188 43.210938 C 47.8125 43.058594 47.46875 43.078125 47.140625 43.054688 Z M 47.140625 43.054688 "/>
<path style=" stroke:none;fill-rule:nonzero;fill:rgb(94.901961%,97.647059%,97.254902%);fill-opacity:1;" d="M 49.410156 42.292969 C 49.523438 42.332031 49.746094 42.414062 49.859375 42.453125 C 49.917969 42.777344 49.917969 43.105469 49.945312 43.429688 C 50.289062 43.253906 50.640625 43.191406 50.980469 43.417969 C 51.015625 43.714844 51.046875 44.011719 51.070312 44.308594 C 51.164062 44.441406 51.257812 44.578125 51.351562 44.710938 C 51.183594 44.914062 51.003906 45.113281 50.820312 45.304688 L 50.382812 45.214844 C 50.542969 44.769531 50.667969 44.246094 50.367188 43.820312 C 50.226562 43.871094 50.089844 43.941406 49.957031 44.007812 C 49.960938 44.222656 49.96875 44.441406 49.984375 44.65625 C 50.09375 44.835938 50.207031 45.011719 50.324219 45.1875 C 49.960938 45.238281 49.59375 45.269531 49.226562 45.277344 C 49.21875 45.21875 49.203125 45.101562 49.195312 45.039062 C 49.289062 44.894531 49.386719 44.75 49.476562 44.605469 C 49.363281 44.132812 49.371094 43.644531 49.371094 43.160156 C 48.824219 43.03125 49.308594 42.589844 49.410156 42.292969 Z M 49.410156 42.292969 "/>
<path style=" stroke:none;fill-rule:nonzero;fill:rgb(94.509804%,98.431373%,97.647059%);fill-opacity:1;" d="M 51.953125 43.226562 C 52.421875 43.132812 53.066406 43.175781 53.175781 43.761719 C 53.359375 44.425781 52.476562 44.34375 52.0625 44.359375 C 52.085938 44.429688 52.128906 44.5625 52.152344 44.632812 C 52.507812 44.625 52.832031 44.46875 53.179688 44.425781 C 53.300781 45.269531 51.851562 45.398438 51.625 44.648438 C 51.347656 44.148438 51.566406 43.589844 51.953125 43.226562 Z M 51.953125 43.226562 "/>
<path style=" stroke:none;fill-rule:nonzero;fill:rgb(38.039216%,65.098039%,76.470588%);fill-opacity:1;" d="M 51.863281 43.777344 C 52.148438 43.691406 52.441406 43.609375 52.734375 43.542969 C 52.789062 44.089844 52.121094 44.144531 51.863281 43.777344 Z M 51.863281 43.777344 "/>
<path style=" stroke:none;fill-rule:nonzero;fill:rgb(97.254902%,98.823529%,97.647059%);fill-opacity:1;" d="M 55.101562 44.648438 C 55.421875 44.695312 55.710938 44.285156 56.011719 44.519531 C 56.421875 44.863281 56.671875 45.417969 56.652344 45.960938 C 56.515625 46.070312 56.363281 46.152344 56.210938 46.238281 C 55.824219 45.914062 55.4375 45.574219 54.957031 45.40625 C 54.769531 45.476562 54.585938 45.542969 54.398438 45.613281 C 54.375 45.84375 54.117188 46.152344 54.429688 46.292969 C 55.222656 46.757812 56.195312 46.859375 56.925781 47.460938 C 57.355469 48.042969 57.503906 48.769531 57.4375 49.484375 C 56.976562 51.257812 54.507812 51.742188 53.234375 50.566406 C 52.4375 49.902344 52.429688 48.382812 53.386719 47.867188 C 53.890625 47.554688 54.625 47.558594 55.003906 48.058594 C 54.933594 48.226562 54.863281 48.394531 54.796875 48.566406 C 54.457031 48.683594 54.039062 48.699219 53.800781 49.007812 C 53.683594 49.445312 53.859375 49.960938 54.292969 50.140625 C 54.867188 50.394531 55.648438 50.335938 56.101562 49.871094 C 56.617188 49.28125 56.460938 48.246094 55.765625 47.867188 C 55.082031 47.503906 54.285156 47.378906 53.640625 46.933594 C 53.132812 46.582031 53.046875 45.820312 53.410156 45.335938 C 53.765625 44.769531 54.46875 44.5625 55.101562 44.648438 Z M 55.101562 44.648438 "/>
<path style=" stroke:none;fill-rule:nonzero;fill:rgb(96.862745%,98.039216%,97.647059%);fill-opacity:1;" d="M 71.105469 45.421875 C 71.523438 45.046875 72.152344 45.421875 72.578125 45.066406 C 72.65625 45.066406 72.8125 45.0625 72.890625 45.0625 C 73.097656 45.394531 73.261719 45.753906 73.390625 46.125 C 72.945312 46.527344 72.496094 46.113281 72.101562 45.867188 C 72.03125 45.875 71.890625 45.890625 71.820312 45.902344 C 71.816406 46.019531 71.816406 46.144531 71.816406 46.265625 C 72.320312 46.496094 72.9375 46.554688 73.335938 46.976562 C 73.640625 47.300781 73.421875 47.746094 73.332031 48.121094 C 72.929688 48.46875 72.417969 48.5625 71.902344 48.46875 C 71.714844 48.5625 71.519531 48.738281 71.300781 48.644531 C 70.9375 48.339844 70.703125 47.882812 70.71875 47.398438 C 71.273438 47.105469 71.699219 47.652344 72.195312 47.820312 C 72.558594 47.96875 72.476562 47.511719 72.519531 47.316406 C 72.003906 47.148438 71.476562 46.992188 70.988281 46.742188 L 70.769531 46.382812 C 70.761719 46.035156 70.832031 45.660156 71.105469 45.421875 Z M 71.105469 45.421875 "/>
<path style=" stroke:none;fill-rule:nonzero;fill:rgb(97.254902%,98.823529%,97.647059%);fill-opacity:1;" d="M 65.042969 45.941406 C 65.464844 45.691406 65.988281 45.414062 66.472656 45.691406 C 67.40625 46.21875 67.519531 47.648438 66.917969 48.476562 C 66.621094 48.949219 65.914062 49.089844 65.46875 48.746094 C 65.207031 48.613281 65.183594 48.179688 65.417969 48.007812 C 65.636719 47.976562 65.863281 47.964844 66.085938 47.964844 C 66.441406 47.621094 66.535156 47.140625 66.300781 46.695312 L 65.960938 46.453125 C 65.632812 46.457031 65.214844 46.539062 65.140625 46.921875 C 65.085938 47.4375 65.121094 47.957031 65.140625 48.476562 C 65.132812 48.773438 65.4375 48.921875 65.574219 49.152344 C 65.644531 49.394531 65.410156 49.558594 65.289062 49.734375 C 64.996094 50.019531 64.679688 50.4375 64.214844 50.3125 C 64.03125 49.890625 64.292969 49.449219 64.28125 49.015625 C 64.253906 48.320312 64.164062 47.628906 64.179688 46.933594 C 64.03125 46.863281 63.886719 46.792969 63.738281 46.722656 C 63.726562 46.632812 63.699219 46.460938 63.6875 46.375 C 63.984375 46.050781 64.3125 45.683594 64.785156 45.644531 C 64.847656 45.71875 64.976562 45.867188 65.042969 45.941406 Z M 65.042969 45.941406 "/>
<path style=" stroke:none;fill-rule:nonzero;fill:rgb(97.254902%,98.431373%,97.647059%);fill-opacity:1;" d="M 68.09375 45.773438 C 68.71875 45.136719 69.96875 45.257812 70.359375 46.105469 C 70.515625 46.433594 70.613281 47 70.199219 47.175781 C 69.691406 47.441406 69.113281 47.363281 68.566406 47.367188 C 68.578125 47.445312 68.609375 47.605469 68.625 47.6875 C 69.230469 48.136719 69.792969 47.496094 70.425781 47.519531 C 70.4375 47.710938 70.476562 47.90625 70.453125 48.101562 C 70.226562 48.511719 69.734375 48.609375 69.335938 48.753906 C 68.574219 48.761719 67.808594 48.273438 67.6875 47.480469 C 67.511719 46.890625 67.671875 46.222656 68.09375 45.773438 Z M 68.09375 45.773438 "/>
<path style=" stroke:none;fill-rule:nonzero;fill:rgb(97.647059%,99.215686%,97.254902%);fill-opacity:1;" d="M 60.863281 46.347656 C 61.25 45.757812 62.050781 45.722656 62.664062 45.902344 C 63.421875 46.183594 63.570312 47.097656 63.546875 47.8125 C 63.414062 48.230469 63.242188 48.703125 62.820312 48.910156 C 62.410156 49.148438 61.925781 49.054688 61.480469 49.074219 C 60.5 48.585938 60.195312 47.210938 60.863281 46.347656 Z M 60.863281 46.347656 "/>
<path style=" stroke:none;fill-rule:nonzero;fill:rgb(96.862745%,98.823529%,97.254902%);fill-opacity:1;" d="M 58.203125 46.285156 C 58.488281 46.035156 58.871094 45.972656 59.222656 45.871094 C 59.546875 45.984375 59.914062 46.050781 60.164062 46.304688 C 60.347656 46.558594 60.300781 46.949219 60.007812 47.101562 C 59.589844 46.929688 59.175781 46.703125 58.710938 46.777344 C 58.449219 47.242188 58.335938 47.9375 58.820312 48.300781 C 59.339844 48.558594 59.832031 48.03125 60.367188 48.113281 C 60.378906 48.386719 60.507812 48.761719 60.207031 48.933594 C 59.800781 49.324219 59.191406 49.347656 58.671875 49.242188 C 57.519531 48.820312 57.28125 47.054688 58.203125 46.285156 Z M 58.203125 46.285156 "/>
<path style=" stroke:none;fill-rule:nonzero;fill:rgb(1.176471%,3.137255%,3.921569%);fill-opacity:1;" d="M 68.679688 46.195312 C 69.070312 46.105469 69.640625 46.011719 69.671875 46.578125 C 69.257812 46.695312 68.832031 46.753906 68.40625 46.777344 C 68.492188 46.582031 68.585938 46.386719 68.679688 46.195312 Z M 68.679688 46.195312 "/>
<path style=" stroke:none;fill-rule:nonzero;fill:rgb(1.568627%,1.176471%,1.568627%);fill-opacity:1;" d="M 61.636719 46.636719 C 61.898438 46.515625 62.1875 46.601562 62.457031 46.636719 C 62.65625 47.027344 62.816406 47.476562 62.640625 47.910156 C 62.480469 48.445312 61.613281 48.457031 61.433594 47.921875 C 61.367188 47.496094 61.277344 46.960938 61.636719 46.636719 Z M 61.636719 46.636719 "/>
<path style=" stroke:none;fill-rule:nonzero;fill:rgb(100%,100%,100%);fill-opacity:1;" d="M 88.917969 51.117188 C 90 50.867188 90.785156 50.015625 91.621094 49.367188 C 93.136719 49.523438 94.578125 50.246094 95.636719 51.34375 C 96.5625 52.386719 97.203125 53.75 97.144531 55.171875 C 97.230469 57.0625 96.238281 58.878906 94.796875 60.039062 C 92.359375 62.058594 88.5 62.101562 86.09375 60.003906 C 84.671875 58.808594 83.859375 56.882812 84.09375 55.019531 C 84.210938 53.886719 84.683594 52.8125 85.371094 51.914062 C 86.558594 51.675781 87.734375 51.378906 88.917969 51.117188 Z M 88.917969 51.117188 "/>
<path style=" stroke:none;fill-rule:nonzero;fill:rgb(98.039216%,98.823529%,98.039216%);fill-opacity:1;" d="M 18.863281 52.421875 C 19.308594 52.871094 19.746094 53.328125 20.199219 53.769531 C 20.527344 54.054688 20.582031 54.511719 20.730469 54.898438 C 22.914062 61.113281 26.679688 66.75 31.578125 71.125 C 35.941406 75.039062 41.1875 77.964844 46.816406 79.554688 C 53.234375 81.382812 60.121094 81.507812 66.59375 79.886719 C 75.769531 77.648438 84.007812 71.855469 89.328125 64.007812 C 89.777344 63.957031 90.226562 63.90625 90.683594 63.886719 C 85.273438 72.25 76.671875 78.476562 67.039062 80.871094 C 64.726562 81.476562 62.351562 81.839844 59.964844 82 C 56.699219 82.21875 53.410156 82.023438 50.191406 81.433594 C 43.851562 80.285156 37.8125 77.519531 32.753906 73.507812 C 26.046875 68.210938 21.066406 60.71875 18.863281 52.421875 Z M 18.863281 52.421875 "/>
<path style=" stroke:none;fill-rule:nonzero;fill:rgb(100%,100%,100%);fill-opacity:1;" d="M 79.660156 52.984375 C 79.855469 52.960938 80.058594 52.886719 80.253906 52.9375 C 81.445312 53.910156 82.292969 55.316406 82.484375 56.859375 C 82.957031 59.878906 80.808594 62.898438 77.960938 63.753906 C 76.039062 64.382812 73.828125 64.125 72.152344 62.972656 C 70.835938 62.109375 69.859375 60.722656 69.546875 59.167969 C 69.179688 57.609375 69.542969 55.914062 70.40625 54.582031 C 70.511719 54.351562 70.789062 54.382812 70.992188 54.339844 C 73.894531 53.960938 76.777344 53.484375 79.660156 52.984375 Z M 39.601562 57.945312 C 40.230469 55.980469 41.765625 54.265625 43.738281 53.632812 C 44.007812 54.476562 44.671875 55.15625 45.519531 55.425781 C 47.378906 56.0625 49.378906 55.804688 51.308594 55.863281 C 52.257812 57.273438 52.75 59.046875 52.394531 60.738281 C 51.894531 63.738281 49.074219 66.101562 46.066406 66.097656 C 43.875 66.203125 41.679688 65.097656 40.449219 63.273438 C 39.390625 61.738281 39.105469 59.738281 39.601562 57.945312 Z M 56.175781 55.730469 C 59.390625 55.585938 62.605469 55.351562 65.804688 54.960938 C 66.9375 56.117188 67.664062 57.707031 67.597656 59.351562 C 67.582031 61.285156 66.523438 63.125 64.964844 64.226562 C 63.5 65.28125 61.589844 65.695312 59.824219 65.304688 C 57.539062 64.851562 55.589844 63.019531 55.050781 60.722656 C 54.90625 59.695312 54.894531 58.628906 55.199219 57.628906 C 55.429688 56.949219 55.792969 56.332031 56.175781 55.730469 Z M 56.175781 55.730469 "/>
<path style=" stroke:none;fill-rule:nonzero;fill:rgb(98.039216%,98.823529%,98.431373%);fill-opacity:1;" d="M 36.238281 57.023438 C 36.476562 56.902344 36.71875 56.789062 36.957031 56.671875 C 36.414062 57.996094 36.261719 59.441406 36.335938 60.859375 C 35.398438 59.769531 34.523438 58.621094 33.714844 57.429688 C 34.578125 57.464844 35.433594 57.34375 36.238281 57.023438 Z M 36.238281 57.023438 "/>
<path style=" stroke:none;fill-rule:nonzero;fill:rgb(98.431373%,99.215686%,98.431373%);fill-opacity:1;" d="M 29.359375 62.117188 C 30.597656 61.335938 31.765625 60.4375 33.015625 59.671875 C 33.3125 60.109375 33.601562 60.546875 33.871094 61.003906 C 32.742188 61.742188 31.636719 62.515625 30.511719 63.253906 C 29.976562 63.578125 29.390625 63.921875 28.742188 63.839844 C 27.589844 63.800781 26.667969 62.605469 26.84375 61.472656 C 26.972656 60.777344 27.460938 60.167969 28.101562 59.878906 C 28.351562 60.277344 28.636719 60.644531 28.875 61.046875 C 28.652344 61.378906 28.183594 61.683594 28.386719 62.144531 C 28.636719 62.496094 29.066406 62.28125 29.359375 62.117188 Z M 29.359375 62.117188 "/>
<path style=" stroke:none;fill-rule:nonzero;fill:rgb(98.823529%,99.215686%,98.431373%);fill-opacity:1;" d="M 32.820312 63.425781 C 33.308594 62.96875 33.863281 62.417969 34.589844 62.503906 C 35.695312 62.652344 36.597656 63.636719 36.773438 64.730469 C 36.828125 65.402344 36.421875 65.992188 35.921875 66.394531 C 34.824219 67.378906 33.804688 68.457031 32.667969 69.398438 C 32.382812 69.105469 32.09375 68.816406 31.8125 68.523438 C 32.335938 67.820312 33.042969 67.277344 33.6875 66.691406 C 33.371094 66.296875 33.03125 65.921875 32.6875 65.550781 C 32 66.078125 31.414062 66.730469 30.757812 67.289062 C 30.457031 67.023438 30.175781 66.738281 29.894531 66.449219 C 29.890625 66.394531 29.878906 66.28125 29.871094 66.222656 C 30.832031 65.265625 31.863281 64.382812 32.820312 63.425781 Z M 32.820312 63.425781 "/>
<path style=" stroke:none;fill-rule:nonzero;fill:rgb(100%,100%,100%);fill-opacity:1;" d="M 59.355469 67.773438 C 62.851562 68.226562 66.523438 66.285156 68.085938 63.089844 C 69.089844 64.453125 70.535156 65.46875 72.140625 65.976562 C 72.136719 66.011719 72.125 66.078125 72.117188 66.109375 C 66.714844 69.460938 60.183594 70.929688 53.882812 70.117188 C 51.496094 69.816406 49.140625 69.222656 46.914062 68.292969 C 49.5 67.773438 51.769531 65.992188 52.964844 63.636719 C 54.289062 65.933594 56.738281 67.507812 59.355469 67.773438 Z M 59.355469 67.773438 "/>
<path style=" stroke:none;fill-rule:nonzero;fill:rgb(0.784314%,1.176471%,1.568627%);fill-opacity:1;" d="M 34.257812 64.007812 C 34.839844 63.972656 35.511719 64.519531 35.277344 65.148438 C 35.074219 65.390625 34.820312 65.59375 34.578125 65.800781 C 34.222656 65.457031 33.878906 65.097656 33.550781 64.722656 C 33.785156 64.484375 34.019531 64.246094 34.257812 64.007812 Z M 34.257812 64.007812 "/>
<path style=" stroke:none;fill-rule:nonzero;fill:rgb(98.431373%,99.215686%,98.431373%);fill-opacity:1;" d="M 38.25 65.34375 C 38.609375 65.585938 38.953125 65.851562 39.300781 66.113281 C 38.84375 67.195312 38.40625 68.285156 37.910156 69.351562 C 37.894531 69.449219 37.855469 69.648438 37.839844 69.746094 C 38.816406 68.890625 39.839844 68.089844 40.839844 67.261719 C 41.167969 67.535156 41.511719 67.796875 41.859375 68.050781 C 40.121094 69.527344 38.332031 70.945312 36.578125 72.410156 C 36.25 72.15625 35.914062 71.910156 35.578125 71.667969 C 36.453125 69.550781 37.371094 67.457031 38.25 65.34375 Z M 38.25 65.34375 "/>
<path style=" stroke:none;fill-rule:nonzero;fill:rgb(98.431373%,99.215686%,97.647059%);fill-opacity:1;" d="M 70.1875 69.863281 C 71.410156 69.175781 72.59375 68.425781 73.785156 67.691406 C 74.03125 68.078125 74.269531 68.46875 74.480469 68.878906 C 74.09375 69.117188 73.6875 69.324219 73.316406 69.585938 C 73.351562 69.789062 73.460938 69.964844 73.5625 70.140625 C 74.335938 71.4375 75.136719 72.722656 75.882812 74.035156 C 75.917969 74.058594 75.992188 74.109375 76.027344 74.132812 C 75.636719 74.363281 75.253906 74.605469 74.882812 74.855469 C 73.859375 73.410156 73.0625 71.808594 72.09375 70.324219 C 71.679688 70.566406 71.273438 70.828125 70.84375 71.046875 C 70.625 70.648438 70.402344 70.257812 70.1875 69.863281 Z M 70.1875 69.863281 "/>
<path style=" stroke:none;fill-rule:nonzero;fill:rgb(98.431373%,99.215686%,98.039216%);fill-opacity:1;" d="M 42.78125 69.175781 C 44.015625 68.808594 45.53125 69.597656 45.839844 70.886719 C 45.964844 71.566406 45.554688 72.167969 45.269531 72.746094 C 44.691406 73.933594 44.074219 75.09375 43.476562 76.273438 C 43.078125 76.09375 42.6875 75.890625 42.308594 75.679688 C 42.691406 74.890625 43.089844 74.117188 43.480469 73.332031 C 43.027344 73.101562 42.589844 72.820312 42.105469 72.667969 C 41.746094 73.429688 41.324219 74.160156 40.976562 74.925781 C 40.558594 74.8125 40.171875 74.609375 39.785156 74.421875 C 39.8125 74.070312 39.96875 73.75 40.132812 73.441406 C 40.664062 72.382812 41.226562 71.339844 41.742188 70.273438 C 41.949219 69.804688 42.265625 69.335938 42.78125 69.175781 Z M 42.78125 69.175781 "/>
<path style=" stroke:none;fill-rule:nonzero;fill:rgb(0.784314%,1.176471%,1.568627%);fill-opacity:1;" d="M 43.121094 70.671875 C 43.210938 70.636719 43.378906 70.570312 43.464844 70.535156 C 43.875 70.625 44.476562 70.808594 44.46875 71.324219 C 44.367188 71.652344 44.183594 71.945312 44.023438 72.25 C 43.570312 72.027344 43.121094 71.800781 42.675781 71.558594 C 42.820312 71.257812 42.96875 70.964844 43.121094 70.671875 Z M 43.121094 70.671875 "/>
<path style=" stroke:none;fill-rule:nonzero;fill:rgb(98.823529%,99.607843%,98.823529%);fill-opacity:1;" d="M 65.5 71.539062 C 66.578125 71.238281 67.652344 70.375 68.808594 70.808594 C 69.921875 71.128906 70.554688 72.542969 70.023438 73.589844 C 69.6875 74.273438 69.015625 74.6875 68.324219 74.929688 C 68.613281 75.699219 68.929688 76.460938 69.183594 77.246094 C 68.8125 77.410156 68.433594 77.554688 68.0625 77.726562 C 67.972656 77.730469 67.878906 77.734375 67.789062 77.738281 C 67.175781 76.167969 66.59375 74.585938 65.992188 73.011719 C 65.804688 72.527344 65.574219 72.054688 65.5 71.539062 Z M 65.5 71.539062 "/>
<path style=" stroke:none;fill-rule:nonzero;fill:rgb(98.039216%,98.823529%,97.647059%);fill-opacity:1;" d="M 47.851562 71.171875 C 48.582031 70.953125 49.386719 71.109375 50.015625 71.523438 C 50.695312 72.054688 50.824219 73.035156 50.582031 73.820312 C 50.179688 73.71875 49.785156 73.605469 49.394531 73.472656 C 49.355469 73.144531 49.425781 72.675781 49.0625 72.503906 C 48.84375 72.34375 48.566406 72.394531 48.320312 72.375 C 48.242188 72.5625 48.167969 72.75 48.09375 72.941406 C 48.78125 73.554688 49.710938 73.976562 50.0625 74.898438 C 50.453125 76.089844 49.605469 77.480469 48.390625 77.714844 C 48.210938 77.710938 48.035156 77.707031 47.859375 77.707031 C 47.230469 77.550781 46.527344 77.328125 46.1875 76.71875 C 45.824219 76.128906 45.929688 75.40625 46.027344 74.753906 C 46.476562 74.851562 46.925781 74.953125 47.359375 75.117188 C 47.386719 75.554688 47.335938 76.027344 47.664062 76.371094 C 47.824219 76.371094 48.140625 76.375 48.296875 76.375 C 48.503906 76.085938 48.757812 75.757812 48.710938 75.378906 C 48.226562 74.71875 47.351562 74.457031 46.9375 73.726562 C 46.5625 72.824219 46.929688 71.582031 47.851562 71.171875 Z M 47.851562 71.171875 "/>
<path style=" stroke:none;fill-rule:nonzero;fill:rgb(98.431373%,99.607843%,98.039216%);fill-opacity:1;" d="M 63 71.960938 C 63.484375 71.855469 63.96875 71.75 64.460938 71.679688 C 64.90625 73.847656 65.285156 76.027344 65.738281 78.195312 C 65.339844 78.289062 64.9375 78.375 64.535156 78.441406 C 64.484375 78.472656 64.386719 78.535156 64.335938 78.566406 C 64.136719 78.023438 64.0625 77.449219 63.949219 76.886719 C 63.632812 75.242188 63.308594 73.605469 63 71.960938 Z M 63 71.960938 "/>
<path style=" stroke:none;fill-rule:nonzero;fill:rgb(0.784314%,0.784314%,1.568627%);fill-opacity:1;" d="M 67.351562 72.40625 C 67.746094 72.238281 68.167969 72.121094 68.601562 72.214844 C 68.769531 72.519531 68.898438 72.882812 68.746094 73.226562 C 68.484375 73.480469 68.125 73.582031 67.785156 73.671875 C 67.636719 73.25 67.480469 72.832031 67.351562 72.40625 Z M 67.351562 72.40625 "/>
<path style=" stroke:none;fill-rule:nonzero;fill:rgb(98.823529%,99.607843%,99.215686%);fill-opacity:1;" d="M 52.371094 73.132812 C 53.082031 72.015625 54.882812 71.859375 55.785156 72.828125 C 56.0625 73.09375 56.1875 73.46875 56.34375 73.8125 C 56.34375 74.164062 56.339844 74.515625 56.335938 74.867188 C 55.878906 74.882812 55.425781 74.839844 54.972656 74.792969 C 54.96875 74.558594 54.964844 74.324219 54.964844 74.089844 C 54.667969 73.761719 54.207031 73.574219 53.785156 73.769531 C 53.410156 74.039062 53.476562 74.542969 53.390625 74.945312 C 53.324219 75.601562 53.164062 76.246094 53.171875 76.910156 C 53.226562 76.996094 53.34375 77.164062 53.402344 77.25 C 53.75 77.457031 54.140625 77.410156 54.492188 77.238281 C 54.589844 77.003906 54.6875 76.773438 54.785156 76.539062 C 55.234375 76.589844 55.679688 76.660156 56.128906 76.707031 C 56.128906 77.386719 55.902344 78.152344 55.269531 78.492188 C 54.289062 79.027344 52.871094 78.945312 52.160156 77.992188 C 51.589844 77.359375 51.726562 76.445312 51.871094 75.675781 C 52.050781 74.832031 52.042969 73.933594 52.371094 73.132812 Z M 52.371094 73.132812 "/>
<path style=" stroke:none;fill-rule:nonzero;fill:rgb(99.215686%,99.607843%,98.823529%);fill-opacity:1;" d="M 57.402344 72.503906 C 58.261719 72.378906 59.128906 72.320312 59.996094 72.320312 C 60.4375 72.304688 60.839844 72.515625 61.21875 72.71875 C 61.84375 73.492188 61.960938 74.628906 61.488281 75.507812 C 61.332031 75.8125 61.054688 76.03125 60.894531 76.332031 C 61.257812 77.191406 61.8125 77.953125 62.234375 78.785156 C 61.742188 78.792969 61.253906 78.839844 60.765625 78.871094 C 60.21875 78.042969 59.78125 77.144531 59.175781 76.359375 C 59.183594 77.242188 59.332031 78.113281 59.351562 78.996094 C 58.886719 79.035156 58.429688 79.101562 57.964844 79.117188 C 57.90625 78.644531 57.890625 78.167969 57.835938 77.699219 C 57.742188 76.566406 57.640625 75.433594 57.539062 74.304688 C 57.46875 73.703125 57.441406 73.101562 57.402344 72.503906 Z M 57.402344 72.503906 "/>
<path style=" stroke:none;fill-rule:nonzero;fill:rgb(0.392157%,0.784314%,1.568627%);fill-opacity:1;" d="M 58.960938 73.707031 C 59.433594 73.5625 59.921875 73.644531 60.332031 73.921875 C 60.386719 74.105469 60.441406 74.292969 60.5 74.480469 C 60.386719 74.703125 60.292969 74.964844 60.0625 75.09375 C 59.75 75.183594 59.429688 75.238281 59.109375 75.289062 C 59.003906 74.765625 58.964844 74.238281 58.960938 73.707031 Z M 58.960938 73.707031 "/>
</g>
</svg>
